<svg width="426" height="56" viewBox="0 0 426 56" fill="none" xmlns="http://www.w3.org/2000/svg">
<path d="M406.779 0.5C409.805 0.500029 412.56 1.05242 415.037 2.16602L415.496 2.37207C417.762 3.42613 419.674 4.8635 421.225 6.68457C422.927 8.59444 424.106 10.8746 424.766 13.5146H424.765C425.466 16.12 425.545 18.9396 425.013 21.9658V21.9668C424.481 24.9569 423.416 27.7641 421.821 30.3838L421.819 30.3867C420.226 32.9601 418.266 35.2078 415.938 37.1279L415.937 37.127C413.649 39.0473 411.077 40.5593 408.221 41.6611L408.218 41.6631C405.395 42.7274 402.468 43.2598 399.441 43.2598H378.51C375.484 43.2597 372.729 42.7268 370.252 41.6533L370.246 41.6504C367.778 40.5394 365.693 39.0128 364 37.0703L363.996 37.0664C362.341 35.1215 361.165 32.8473 360.465 30.2529L360.463 30.2441C359.803 27.6005 359.744 24.781 360.276 21.792C360.808 18.7623 361.873 15.9547 363.47 13.373C365.062 10.7608 367.002 8.51224 369.292 6.63086C371.618 4.71162 374.191 3.22045 377.007 2.1582L377.545 1.95703C380.24 0.985881 383.008 0.500012 385.848 0.5H406.779ZM384.405 9.80371C382.87 9.80371 381.372 10.1108 379.908 10.7275C378.478 11.3468 377.161 12.1983 375.958 13.2852L375.953 13.291L375.624 12.9141L375.952 13.291C374.755 14.3335 373.728 15.6117 372.872 17.1309L372.869 17.1357C372.017 18.6075 371.435 20.2167 371.124 21.9668C370.813 23.715 370.816 25.3104 371.119 26.7588L371.259 27.2988C371.613 28.5358 372.14 29.6156 372.836 30.5449C373.63 31.5631 374.631 32.3767 375.847 32.9854C377.053 33.5885 378.418 33.8954 379.954 33.8955H400.884C402.419 33.8955 403.896 33.5886 405.317 32.9736L405.322 32.9717C406.794 32.3513 408.13 31.5185 409.332 30.4727C410.533 29.3864 411.563 28.1041 412.42 26.623C413.272 25.1513 413.855 23.542 414.166 21.792C414.476 20.043 414.453 18.4484 414.111 17.001L414.109 16.9932L414.108 16.9854C413.8 15.4839 413.246 14.2339 412.458 13.2207L412.453 13.2139C411.658 12.1543 410.657 11.3217 409.442 10.7139C408.236 10.1107 406.871 9.80376 405.335 9.80371H384.405Z" stroke="url(#paint0_linear_25_57)"/>
<path d="M404.899 8.5C408.002 8.5 410.827 9.10946 413.365 10.3369L413.834 10.5635C416.16 11.7268 418.119 13.3125 419.706 15.3184H419.705C421.437 17.4128 422.637 19.9094 423.309 22.7979L423.436 23.3369C424.034 26.0452 424.073 28.9614 423.564 32.0801V32.082C423.021 35.3652 421.933 38.4478 420.302 41.3271L420.3 41.3301C418.673 44.158 416.669 46.6293 414.289 48.7422C411.946 50.8574 409.311 52.5235 406.384 53.7383L406.38 53.7402C403.488 54.9131 400.488 55.5 397.384 55.5H375.948C372.845 55.5 370.02 54.9126 367.483 53.7295L367.476 53.7266C364.948 52.5023 362.815 50.8218 361.083 48.6865L361.081 48.6816C359.39 46.5447 358.19 44.0489 357.476 41.2021L357.474 41.1943L357.961 41.0811L357.474 41.1934C356.801 38.294 356.74 35.2001 357.283 31.918C357.826 28.5911 358.914 25.5072 360.546 22.6699C362.173 19.7981 364.157 17.3245 366.5 15.2539C368.882 13.1403 371.517 11.4969 374.405 10.3262C377.337 9.1096 380.358 8.50006 383.462 8.5H404.899ZM381.985 18.6475C380.418 18.6475 378.887 18.9825 377.39 19.6602C375.925 20.3421 374.574 21.282 373.339 22.4824L373.333 22.4893L373.333 22.4883C372.105 23.6389 371.05 25.0512 370.169 26.7305L370.167 26.7354C369.291 28.3632 368.692 30.144 368.372 32.0811C368.051 34.0209 368.054 35.7941 368.37 37.4053C368.727 39.0211 369.316 40.4108 370.131 41.583C370.949 42.714 371.98 43.6144 373.228 44.2861C374.462 44.9501 375.858 45.2871 377.426 45.2871H398.863C400.431 45.2871 401.939 44.9492 403.394 44.2725L403.399 44.2705C404.906 43.5877 406.275 42.671 407.507 41.5176C408.741 40.3185 409.799 38.9021 410.68 37.2646C411.556 35.6368 412.155 33.856 412.475 31.9189C412.795 29.9827 412.772 28.2137 412.418 26.6064L412.416 26.5918C412.098 24.927 411.527 23.5403 410.715 22.417L410.71 22.4102C409.892 21.2365 408.863 20.3169 407.619 19.6475C406.385 18.9836 404.989 18.6475 403.42 18.6475H381.985Z" stroke="url(#paint1_linear_25_57)"/>
<path d="M350.857 0.553711C353.028 0.560626 354.669 2.52118 354.293 4.65918L347.446 43.6064C347.151 45.2797 345.698 46.5 343.999 46.5H340.132C337.958 46.5 336.31 44.5389 336.684 42.3975L341.75 13.418C342.017 11.8883 340.839 10.4873 339.287 10.4873H336.434C335.344 10.4873 334.306 10.8183 333.312 11.499C332.358 12.1814 331.648 13.0388 331.172 14.0752H331.171L317.203 44.4619C316.632 45.704 315.389 46.5 314.022 46.5H308.683C306.896 46.4998 305.396 45.153 305.204 43.376L302.025 13.9229L302 13.7373C301.856 12.8187 301.449 12.0659 300.774 11.458C300.061 10.8161 299.177 10.4873 298.089 10.4873H294.188C292.973 10.4874 291.934 11.3602 291.725 12.5566L286.299 43.6025C286.007 45.2775 284.552 46.4998 282.852 46.5H278.987C276.813 46.5 275.165 44.5388 275.539 42.3975L282.327 3.52734C282.619 1.852 284.074 0.628906 285.775 0.628906H303.576L303.601 0.631836C305.765 0.858696 307.605 1.72499 309.101 3.22852L309.375 3.50684C310.619 4.82718 311.391 6.42782 311.695 8.29297L311.752 8.69727L311.753 8.70703L312.932 19.9707C313.196 22.4971 316.623 23.0656 317.688 20.7598L323.327 8.54883L323.33 8.54395C324.348 6.40373 325.811 4.61738 327.714 3.19043L328.071 2.92383C329.822 1.6567 331.728 0.899697 333.785 0.658203C333.897 0.558281 334.044 0.499503 334.2 0.5L350.857 0.553711Z" stroke="url(#paint2_linear_25_57)"/>
<path d="M352.832 12.5488C355.004 12.556 356.644 14.5193 356.266 16.6582L349.928 52.4893C349.632 54.161 348.18 55.3797 346.482 55.3799H343.249C341.073 55.3798 339.425 53.4159 339.801 51.2734L344.458 24.7969C344.727 23.2665 343.55 21.8643 341.996 21.8643H339.555C338.544 21.8643 337.58 22.1673 336.656 22.7939C335.763 23.4267 335.099 24.2223 334.656 25.1836V25.1846L321.627 53.3486C321.055 54.5867 319.815 55.3799 318.451 55.3799H313.738C311.951 55.3797 310.451 54.0339 310.258 52.2578L307.301 25.0283V25.0273C307.194 24.1044 306.809 23.3568 306.142 22.7598C305.481 22.1683 304.661 21.8643 303.649 21.8643H300.153C298.939 21.8643 297.9 22.7354 297.69 23.9307L292.668 52.4863C292.374 54.1595 290.92 55.3799 289.221 55.3799H285.991C283.816 55.3799 282.167 53.4167 282.543 51.2744L288.827 15.5146C289.121 13.841 290.575 12.6201 292.274 12.6201H308.787L308.813 12.623C310.845 12.8348 312.574 13.6437 313.98 15.0479C315.389 16.415 316.22 18.1264 316.474 20.1582L316.475 20.168L317.506 29.9639C317.772 32.4858 321.19 33.0554 322.259 30.7559L327.252 20.0098L327.255 20.0049C328.153 18.1308 329.418 16.5476 331.046 15.2598L331.377 15.0059C333.108 13.6787 335.005 12.8902 337.061 12.6484C337.171 12.5543 337.312 12.4995 337.462 12.5L352.832 12.5488Z" stroke="url(#paint3_linear_25_57)"/>
<path d="M282.732 0.5L282.934 0.505859C285.004 0.622702 286.539 2.52329 286.181 4.5957L285.773 6.95898C285.483 8.6375 284.027 9.86426 282.324 9.86426H279.792C278.578 9.86426 277.54 10.7337 277.331 11.9287C276.865 14.5834 276.119 18.8365 275.57 21.9658C275.088 24.713 274.454 28.3263 273.992 30.9639C273.723 32.4938 274.9 33.8954 276.454 33.8955H276.873C279.053 33.8955 280.704 35.8683 280.318 38.0146L279.892 40.3789C279.592 42.0461 278.142 43.2597 276.448 43.2598H258.005C255.825 43.2598 254.174 41.2861 254.56 39.1396L254.985 36.7764C255.285 35.109 256.736 33.8955 258.43 33.8955H261.04C262.254 33.8955 263.293 33.023 263.502 31.8271L265.262 21.793L266.84 12.7959C267.109 11.2659 265.932 9.86451 264.378 9.86426H263.874C261.703 9.86413 260.055 7.9078 260.424 5.76855L260.833 3.4043C261.122 1.72599 262.579 0.5 264.282 0.5H282.732Z" stroke="url(#paint4_linear_25_57)"/>
<path d="M271.732 12.5L271.934 12.5059C274.004 12.6227 275.539 14.5233 275.181 16.5957L274.773 18.959C274.483 20.6375 273.027 21.8643 271.324 21.8643H268.792C267.578 21.8643 266.54 22.7337 266.331 23.9287C265.865 26.5834 265.119 30.8365 264.57 33.9658C264.088 36.713 263.454 40.3263 262.992 42.9639C262.723 44.4938 263.9 45.8954 265.454 45.8955H265.873C268.053 45.8955 269.704 47.8683 269.318 50.0146L268.892 52.3789C268.592 54.0461 267.142 55.2597 265.448 55.2598H247.005C244.825 55.2598 243.174 53.2861 243.56 51.1396L243.985 48.7764C244.285 47.109 245.736 45.8955 247.43 45.8955H250.04C251.254 45.8955 252.293 45.023 252.502 43.8271L254.262 33.793L255.84 24.7959C256.109 23.2659 254.932 21.8645 253.378 21.8643H252.874C250.703 21.8641 249.055 19.9078 249.424 17.7686L249.833 15.4043C250.122 13.726 251.579 12.5 253.282 12.5H271.732Z" stroke="url(#paint5_linear_25_57)"/>
<path d="M245.842 8.5C248.018 8.5 249.667 10.4645 249.29 12.6074L248.737 15.7412C248.442 17.414 246.989 18.6337 245.291 18.6338H224.132C222.915 18.634 221.874 19.5116 221.668 20.7119L216.212 52.5908C215.925 54.2714 214.467 55.5 212.762 55.5H208.87C206.701 55.4998 205.055 53.547 205.42 51.4092L210.53 21.5557C210.791 20.0287 209.615 18.634 208.066 18.6338H188.993C186.817 18.6338 185.168 16.6693 185.545 14.5264L186.098 11.3926C186.393 9.71981 187.846 8.50012 189.544 8.5H245.842Z" stroke="url(#paint6_linear_25_57)"/>
<path d="M253.609 0.5C255.792 0.5 257.442 2.47631 257.053 4.62402L256.636 6.92773C256.335 8.59293 254.884 9.80371 253.192 9.80371H233.737C232.523 9.80389 231.485 10.6759 231.275 11.8711L226.253 40.4258C225.959 42.0992 224.505 43.3193 222.806 43.3193H219.576C217.4 43.3193 215.752 41.3554 216.128 39.2129L220.785 12.7363C221.054 11.2061 219.877 9.80374 218.323 9.80371H201.009C198.827 9.80358 197.177 7.82733 197.566 5.67969L197.983 3.37598C198.285 1.71096 199.734 0.500187 201.426 0.5H253.609Z" stroke="url(#paint7_linear_25_57)"/>
<path d="M181.188 12.5C183.371 12.5 185.021 14.4763 184.632 16.624L184.215 18.9277C183.914 20.5929 182.463 21.8037 180.771 21.8037H142.919C141.869 21.8037 141.061 22.1254 140.447 22.7402L140.441 22.7451L140.436 22.75C139.778 23.3715 139.398 24.0432 139.26 24.7666C139.126 25.4743 139.256 26.1202 139.66 26.7314L139.729 26.8232C140.094 27.2671 140.73 27.543 141.777 27.543H171.548C174.898 27.543 177.633 28.2171 179.707 29.6143C181.744 30.987 183.16 32.7088 183.923 34.7822L184.066 35.1699C184.743 37.1222 184.879 39.2315 184.491 41.4863C184.076 43.8918 183.122 46.1099 181.634 48.1357C180.141 50.1686 178.137 51.859 175.635 53.2129C173.104 54.5828 170.153 55.2597 166.797 55.2598H129.005C126.825 55.2598 125.174 53.2861 125.56 51.1396L125.985 48.7764C126.285 47.109 127.736 45.8955 129.43 45.8955H168.3C169.917 45.8955 171.14 45.4107 172.03 44.4844L172.037 44.4775C173.018 43.4958 173.58 42.4442 173.761 41.3213C173.943 40.1552 173.725 39.1185 173.115 38.1846L173.107 38.1729C172.589 37.3307 171.627 36.8467 170.044 36.8467H140.273C137.248 36.8467 134.761 36.2743 132.852 35.0859L132.84 35.0791C131.003 33.8675 129.706 32.3468 128.982 30.5137L128.981 30.5098C128.264 28.6527 128.098 26.6736 128.474 24.585L128.476 24.5752C128.892 22.495 129.764 20.5631 131.087 18.7832C132.421 16.9483 134.208 15.4555 136.434 14.3008C138.723 13.094 141.392 12.5 144.423 12.5H181.188Z" stroke="url(#paint8_linear_25_57)"/>
<path d="M184.188 0.5C186.371 0.5 188.021 2.4763 187.632 4.62402L187.215 6.92773C186.914 8.59293 185.463 9.8037 183.771 9.80371H145.919C144.869 9.80373 144.061 10.1254 143.447 10.7402L143.441 10.7451L143.436 10.75C142.778 11.3715 142.398 12.0432 142.26 12.7666C142.126 13.4743 142.256 14.1202 142.66 14.7314L142.729 14.8232C143.094 15.2671 143.73 15.543 144.777 15.543H174.548C177.898 15.543 180.633 16.2171 182.707 17.6143C184.744 18.987 186.16 20.7088 186.923 22.7822L187.066 23.1699C187.743 25.1222 187.879 27.2315 187.491 29.4863C187.076 31.8918 186.122 34.1099 184.634 36.1357C183.141 38.1686 181.137 39.859 178.635 41.2129C176.104 42.5828 173.153 43.2597 169.797 43.2598H132.005C129.825 43.2598 128.174 41.2861 128.56 39.1396L128.985 36.7764C129.285 35.109 130.736 33.8955 132.43 33.8955H171.3C172.917 33.8955 174.14 33.4107 175.03 32.4844L175.037 32.4775C176.018 31.4958 176.58 30.4442 176.761 29.3213C176.943 28.1552 176.725 27.1185 176.115 26.1846L176.107 26.1729C175.589 25.3307 174.627 24.8467 173.044 24.8467H143.273C140.248 24.8467 137.761 24.2743 135.852 23.0859L135.84 23.0791C134.003 21.8675 132.706 20.3468 131.982 18.5137L131.981 18.5098C131.264 16.6527 131.098 14.6736 131.474 12.585L131.476 12.5752C131.892 10.495 132.764 8.56313 134.087 6.7832C135.421 4.9483 137.208 3.45548 139.434 2.30078C141.723 1.09402 144.392 0.5 147.423 0.5H184.188Z" stroke="url(#paint9_linear_25_57)"/>
<path d="M74.1226 12.5C76.2945 12.5 77.9417 14.4576 77.5708 16.5977L74.5718 33.9053L74.5708 33.9072C74.2607 35.6524 74.3024 37.2429 74.6821 38.6865C75.0665 40.1478 75.6779 41.4054 76.5103 42.4678L76.8472 42.8574C77.6536 43.7392 78.6054 44.4455 79.7046 44.9795C80.9966 45.5479 82.4074 45.835 83.9429 45.835H100.061C101.597 45.835 103.117 45.5468 104.623 44.9688C106.135 44.348 107.512 43.4963 108.753 42.4092C109.996 41.3213 111.067 40.0371 111.963 38.5547C112.853 37.0847 113.453 35.4785 113.763 33.7324L116.995 15.3926C117.289 13.7197 118.743 12.5 120.442 12.5H123.671L123.874 12.5059C125.948 12.6229 127.484 14.5313 127.119 16.6074L124.07 33.9062V33.9072C123.538 36.8972 122.473 39.7036 120.877 42.3232L120.875 42.3262C119.283 44.8996 117.322 47.1472 114.995 49.0674L114.994 49.0664C112.707 50.9859 110.156 52.4985 107.34 53.6006L107.334 53.6025C104.511 54.6668 101.584 55.1992 98.5571 55.1992H82.439C79.4515 55.1992 76.7162 54.6669 74.2407 53.5938L74.2339 53.5908C71.7652 52.4794 69.6994 50.9513 68.0444 49.0059C66.39 47.061 65.2139 44.7877 64.5142 42.1934L64.5132 42.1914C63.8109 39.5463 63.7321 36.725 64.2642 33.7344H64.2632L67.4409 15.4023C67.7317 13.725 69.1878 12.5 70.8901 12.5H74.1226Z" stroke="url(#paint10_linear_25_57)"/>
<path d="M74.1226 0.5C76.2945 0.5 77.9417 2.4576 77.5708 4.59766L74.5718 21.9053L74.5708 21.9072C74.2607 23.6524 74.3024 25.2429 74.6821 26.6865C75.0665 28.1478 75.6779 29.4054 76.5103 30.4678L76.8472 30.8574C77.6536 31.7392 78.6054 32.4455 79.7046 32.9795C80.9966 33.5479 82.4074 33.835 83.9429 33.835H100.061C101.597 33.835 103.117 33.5468 104.623 32.9688C106.135 32.348 107.512 31.4963 108.753 30.4092C109.996 29.3213 111.067 28.0371 111.963 26.5547C112.853 25.0847 113.453 23.4785 113.763 21.7324L116.995 3.39258C117.289 1.71969 118.743 0.5 120.442 0.5H123.671L123.874 0.505859C125.948 0.622869 127.484 2.53131 127.119 4.60742L124.07 21.9062V21.9072C123.538 24.8972 122.473 27.7036 120.877 30.3232L120.875 30.3262C119.283 32.8996 117.322 35.1472 114.995 37.0674L114.994 37.0664C112.707 38.9859 110.156 40.4985 107.34 41.6006L107.334 41.6025C104.511 42.6668 101.584 43.1992 98.5571 43.1992H82.439C79.4515 43.1992 76.7162 42.6669 74.2407 41.5938L74.2339 41.5908C71.7652 40.4794 69.6994 38.9513 68.0444 37.0059C66.39 35.061 65.2139 32.7877 64.5142 30.1934L64.5132 30.1914C63.8109 27.5463 63.7321 24.725 64.2642 21.7344H64.2632L67.4409 3.40234C67.7317 1.72498 69.1878 0.5 70.8901 0.5H74.1226Z" stroke="url(#paint11_linear_25_57)"/>
<path d="M48.0522 12.5C51.8859 12.5 55.0044 13.2954 57.3599 14.9365C59.6796 16.5529 61.2915 18.597 62.1724 21.0664L62.3364 21.5225C63.1132 23.8175 63.2619 26.304 62.7983 28.9707V28.9727C62.3036 31.777 61.1902 34.3933 59.4653 36.8174C57.7731 39.2118 55.4885 41.205 52.6255 42.8008C49.7317 44.4137 46.3369 45.2109 42.4585 45.2109H14.0083C12.7925 45.2109 11.7533 46.0854 11.5454 47.2832L10.6646 52.3574C10.3735 54.0344 8.91739 55.2598 7.21533 55.2598H4.00146C1.82206 55.2598 0.17271 53.289 0.556152 51.1436L1.54932 45.585L1.55029 45.5811C1.80204 44.238 2.28493 42.978 2.99756 41.8037C3.70651 40.5954 4.5839 39.5505 5.62939 38.6719C6.67199 37.7957 7.82008 37.1058 9.07275 36.6045C10.3341 36.0997 11.6404 35.8467 12.9878 35.8467H43.9624C45.5296 35.8466 46.8593 35.5033 47.9712 34.8369L48.4048 34.5576C49.3876 33.8882 50.1709 33.1076 50.7632 32.2188C51.4458 31.1545 51.8798 30.0189 52.0688 28.8086L52.0708 28.7959L52.1431 28.3311C52.2797 27.2627 52.1963 26.2999 51.9077 25.4336L51.9019 25.4121C51.612 24.3973 51.0355 23.5659 50.1577 22.9072L50.147 22.8994C49.297 22.2262 48.1346 21.8643 46.6089 21.8643H10.7153C8.5446 21.864 6.8979 19.9077 7.26709 17.7686L7.67432 15.4043C7.96414 13.726 9.42042 12.5001 11.1235 12.5H48.0522Z" stroke="url(#paint12_linear_25_57)"/>
<path d="M48.0522 0.5C51.8859 0.50004 55.0044 1.29536 57.3599 2.93652C59.6796 4.55286 61.2915 6.59697 62.1724 9.06641L62.3364 9.52246C63.1132 11.8175 63.2619 14.304 62.7983 16.9707V16.9727C62.3036 19.777 61.1902 22.3933 59.4653 24.8174C57.7731 27.2118 55.4885 29.205 52.6255 30.8008C49.7317 32.4137 46.3369 33.2109 42.4585 33.2109H14.0083C12.7925 33.2109 11.7533 34.0854 11.5454 35.2832L10.6646 40.3574C10.3735 42.0344 8.91739 43.2598 7.21533 43.2598H4.00146C1.82206 43.2598 0.17271 41.289 0.556152 39.1436L1.54932 33.585L1.55029 33.5811C1.80204 32.238 2.28493 30.978 2.99756 29.8037C3.70651 28.5954 4.5839 27.5505 5.62939 26.6719C6.67199 25.7957 7.82008 25.1058 9.07275 24.6045C10.3341 24.0997 11.6404 23.8467 12.9878 23.8467H43.9624C45.5296 23.8466 46.8593 23.5033 47.9712 22.8369L48.4048 22.5576C49.3876 21.8882 50.1709 21.1076 50.7632 20.2188C51.4458 19.1545 51.8798 18.0189 52.0688 16.8086L52.0708 16.7959L52.1431 16.3311C52.2797 15.2627 52.1963 14.2999 51.9077 13.4336L51.9019 13.4121C51.612 12.3973 51.0355 11.5659 50.1577 10.9072L50.147 10.8994C49.297 10.2262 48.1346 9.86432 46.6089 9.86426H10.7153C8.5446 9.864 6.8979 7.90773 7.26709 5.76855L7.67432 3.4043C7.96414 1.72604 9.42042 0.500098 11.1235 0.5H48.0522Z" stroke="url(#paint13_linear_25_57)"/>
<path d="M48.052 7.24069C51.821 7.24069 54.8283 8.02292 57.0736 9.58739C59.319 11.1519 60.8628 13.1175 61.7048 15.4842C62.5869 17.8109 62.7874 20.3582 62.3062 23.1261C61.8251 25.8539 60.7425 28.4011 59.0584 30.7679C57.4145 33.0946 55.1891 35.0401 52.3824 36.6046C49.5756 38.1691 46.2677 38.9513 42.4585 38.9513H11.4841L9.73989 49H0.41748L2.04138 39.914C2.28196 38.6304 2.74307 37.4269 3.42471 36.3037C4.10635 35.1404 4.94837 34.1375 5.95078 33.2951C6.95319 32.4527 8.05584 31.7908 9.25873 31.3095C10.4616 30.8281 11.7046 30.5874 12.9877 30.5874H43.9621C45.6061 30.5874 47.0295 30.2264 48.2324 29.5043C49.4754 28.7421 50.4577 27.8195 51.1795 26.7364C51.9012 25.6132 52.3623 24.4097 52.5628 23.1261C52.8034 21.8023 52.7432 20.5989 52.3824 19.5158C52.0616 18.3926 51.4201 17.4699 50.4577 16.7479C49.4954 15.9857 48.2123 15.6046 46.6085 15.6046H7.15367L8.59714 7.24069H48.052Z" fill="#3E59D0"/>
<path d="M75.6691 28.1203C75.3483 29.9255 75.3884 31.5903 75.7894 33.1146C76.1904 34.639 76.8319 35.9628 77.714 37.086C78.6362 38.2092 79.7589 39.0917 81.0821 39.7335C82.4454 40.3352 83.929 40.6361 85.5328 40.6361H101.652C103.255 40.6361 104.839 40.3352 106.403 39.7335C107.967 39.0917 109.39 38.2092 110.673 37.086C111.956 35.9628 113.059 34.639 113.981 33.1146C114.903 31.5903 115.525 29.9255 115.846 28.1203L119.514 7.30086H128.837L125.168 28.1203C124.647 31.0487 123.604 33.7966 122.041 36.3639C120.477 38.8911 118.552 41.0974 116.267 42.9828C114.021 44.8682 111.515 46.3524 108.749 47.4355C105.982 48.4785 103.115 49 100.148 49H84.0292C81.1022 49 78.4358 48.4785 76.03 47.4355C73.6242 46.3524 71.6194 44.8682 70.0155 42.9828C68.4117 41.0974 67.2689 38.8911 66.5873 36.3639C65.9056 33.7966 65.8255 31.0487 66.3467 28.1203L69.9554 7.30086H79.2778L75.6691 28.1203Z" fill="#3E59D0"/>
<path d="M174.222 22.2235C177.509 22.2235 180.136 22.8854 182.101 24.2092C184.065 25.533 185.408 27.1776 186.13 29.1433C186.892 31.1089 187.072 33.255 186.672 35.5817C186.271 37.9083 185.348 40.0544 183.905 42.0201C182.461 43.9857 180.517 45.6304 178.071 46.9542C175.625 48.2779 172.758 48.9398 169.47 48.9398H128.091L129.594 40.5759H170.974C172.698 40.5759 174.061 40.0544 175.064 39.0115C176.106 37.9685 176.728 36.8252 176.928 35.5817C177.129 34.298 176.888 33.1347 176.206 32.0917C175.565 31.0487 174.402 30.5272 172.718 30.5272H142.946C139.979 30.5272 137.594 29.9656 135.789 28.8424C134.025 27.6791 132.802 26.235 132.12 24.51C131.439 22.745 131.278 20.8596 131.639 18.8539C132.04 16.8481 132.882 14.9828 134.165 13.2579C135.448 11.4928 137.173 10.0487 139.338 8.9255C141.543 7.76218 144.129 7.18051 147.096 7.18051H187.453L185.95 15.4842H145.593C144.43 15.4842 143.488 15.8453 142.766 16.5673C142.044 17.2493 141.603 18.0115 141.443 18.8539C141.282 19.6963 141.443 20.4785 141.924 21.2006C142.405 21.8825 143.247 22.2235 144.45 22.2235H174.222Z" fill="#3E59D0"/>
<path d="M251.463 7.18051L249.959 15.4842H225.48L219.586 49H210.264L216.158 15.4842H191.679L193.183 7.18051H251.463Z" fill="#3E59D0"/>
<path d="M280.743 7.24069L279.299 15.6046H271.721C271.721 15.6046 270.383 23.2326 269.526 28.1203C268.668 33.0081 267.331 40.6361 267.331 40.6361H274.909L273.405 49H248.866L250.37 40.6361H258.008L260.203 28.1203L262.399 15.6046H254.76L256.204 7.24069H280.743Z" fill="#3E59D0"/>
<path d="M352.211 7.18051L344.814 49H335.491L341.385 15.4842H335.371C334.248 15.4842 333.186 15.8252 332.183 16.5072C331.221 17.1891 330.499 18.0516 330.018 19.0946L316.185 49H306.862L303.615 19.0946C303.494 18.0516 303.053 17.1891 302.291 16.5072C301.53 15.8252 300.587 15.4842 299.465 15.4842H293.45L287.556 49H278.234L285.571 7.24069H304.577C306.502 7.44126 308.125 8.20344 309.449 9.52722C310.772 10.8109 311.554 12.4155 311.794 14.341L313.959 34.9198L323.522 14.341C324.445 12.4155 325.768 10.8109 327.492 9.52722C329.216 8.20344 331.101 7.44126 333.146 7.24069L333.206 7.12034L352.211 7.18051Z" fill="#3E59D0"/>
<path d="M399.336 7C402.303 7 404.99 7.54155 407.395 8.62464C409.801 9.66762 411.806 11.1318 413.41 13.0172C415.054 14.8625 416.197 17.0688 416.838 19.6361C417.52 22.1633 417.6 24.9112 417.079 27.8797C416.557 30.808 415.515 33.5559 413.951 36.1232C412.387 38.6504 410.463 40.8567 408.177 42.7421C405.932 44.6275 403.406 46.1117 400.599 47.1948C397.832 48.2378 394.966 48.7593 391.998 48.7593H371.068C368.101 48.7593 365.415 48.2378 363.009 47.1948C360.603 46.1117 358.578 44.6275 356.934 42.7421C355.33 40.8567 354.188 38.6504 353.506 36.1232C352.864 33.5559 352.804 30.808 353.325 27.8797C353.847 24.9112 354.889 22.1633 356.453 19.6361C358.017 17.0688 359.921 14.8625 362.167 13.0172C364.452 11.1318 366.978 9.66762 369.745 8.62464C372.552 7.54155 375.439 7 378.406 7H399.336ZM393.442 40.3954C395.046 40.3954 396.589 40.0745 398.073 39.4327C399.597 38.7908 400.98 37.9284 402.223 36.8453C403.466 35.7221 404.529 34.3983 405.411 32.8739C406.293 31.3496 406.894 29.6848 407.215 27.8797C407.536 26.0745 407.516 24.4097 407.155 22.8854C406.834 21.3209 406.253 19.9971 405.411 18.914C404.569 17.7908 403.506 16.9083 402.223 16.2665C400.94 15.6246 399.496 15.3037 397.893 15.3037H376.962C375.358 15.3037 373.795 15.6246 372.271 16.2665C370.787 16.9083 369.424 17.7908 368.181 18.914C366.938 19.9971 365.876 21.3209 364.993 22.8854C364.111 24.4097 363.51 26.0745 363.189 27.8797C362.868 29.6848 362.868 31.3496 363.189 32.8739C363.55 34.3983 364.151 35.7221 364.993 36.8453C365.836 37.9284 366.898 38.7908 368.181 39.4327C369.464 40.0745 370.908 40.3954 372.512 40.3954H393.442Z" fill="#3E59D0"/>
<defs>
<linearGradient id="paint0_linear_25_57" x1="386.417" y1="1" x2="387.417" y2="11" gradientUnits="userSpaceOnUse">
<stop stop-color="#3E59D0"/>
<stop offset="1" stop-color="#161B2C" stop-opacity="0"/>
</linearGradient>
<linearGradient id="paint1_linear_25_57" x1="384.558" y1="44.2496" x2="398.075" y2="54.3037" gradientUnits="userSpaceOnUse">
<stop stop-color="#161B2C" stop-opacity="0"/>
<stop offset="1" stop-color="#3E59D0"/>
</linearGradient>
<linearGradient id="paint2_linear_25_57" x1="322.417" y1="-1" x2="315.417" y2="11.5" gradientUnits="userSpaceOnUse">
<stop stop-color="#3E59D0"/>
<stop offset="1" stop-color="#161B2C" stop-opacity="0"/>
</linearGradient>
<linearGradient id="paint3_linear_25_57" x1="319.406" y1="13" x2="319.406" y2="54.8797" gradientUnits="userSpaceOnUse">
<stop offset="0.670873" stop-color="#161B2C" stop-opacity="0"/>
<stop offset="1" stop-color="#3E59D0"/>
</linearGradient>
<linearGradient id="paint4_linear_25_57" x1="268.917" y1="21" x2="258.917" y2="5.5" gradientUnits="userSpaceOnUse">
<stop stop-color="#161B2C" stop-opacity="0"/>
<stop offset="1" stop-color="#3E59D0"/>
</linearGradient>
<linearGradient id="paint5_linear_25_57" x1="275.294" y1="33.8797" x2="245.917" y2="52.5" gradientUnits="userSpaceOnUse">
<stop offset="0.642745" stop-color="#161B2C" stop-opacity="0"/>
<stop offset="1" stop-color="#3E59D0"/>
</linearGradient>
<linearGradient id="paint6_linear_25_57" x1="210.417" y1="35" x2="207.149" y2="54.0618" gradientUnits="userSpaceOnUse">
<stop stop-color="#161B2C" stop-opacity="0"/>
<stop offset="1" stop-color="#3E59D0"/>
</linearGradient>
<linearGradient id="paint7_linear_25_57" x1="257.201" y1="21.9097" x2="197.417" y2="21.9097" gradientUnits="userSpaceOnUse">
<stop stop-color="#161B2C" stop-opacity="0"/>
<stop offset="1" stop-color="#3E59D0"/>
</linearGradient>
<linearGradient id="paint8_linear_25_57" x1="125.417" y1="55" x2="184.78" y2="33.8797" gradientUnits="userSpaceOnUse">
<stop stop-color="#3E59D0"/>
<stop offset="0.278497" stop-color="#161B2C" stop-opacity="0"/>
</linearGradient>
<linearGradient id="paint9_linear_25_57" x1="192.917" y1="-3.00001" x2="128.417" y2="54" gradientUnits="userSpaceOnUse">
<stop stop-color="#3E59D0"/>
<stop offset="0.420191" stop-color="#161B2C" stop-opacity="0"/>
</linearGradient>
<linearGradient id="paint10_linear_25_57" x1="64.4175" y1="55" x2="119.917" y2="7.5" gradientUnits="userSpaceOnUse">
<stop stop-color="#3E59D0"/>
<stop offset="0.360577" stop-color="#161B2C" stop-opacity="0"/>
</linearGradient>
<linearGradient id="paint11_linear_25_57" x1="95.832" y1="42.6991" x2="95.4175" y2="-13" gradientUnits="userSpaceOnUse">
<stop stop-color="#3E59D0"/>
<stop offset="1" stop-color="#161B2C" stop-opacity="0"/>
</linearGradient>
<linearGradient id="paint12_linear_25_57" x1="31.4892" y1="13" x2="31.4892" y2="54.7593" gradientUnits="userSpaceOnUse">
<stop stop-color="#3E59D0"/>
<stop offset="1" stop-color="#161B2C" stop-opacity="0"/>
</linearGradient>
<linearGradient id="paint13_linear_25_57" x1="0.41748" y1="21.8797" x2="62.5609" y2="21.8797" gradientUnits="userSpaceOnUse">
<stop stop-color="#3E59D0"/>
<stop offset="1" stop-color="#161B2C" stop-opacity="0"/>
</linearGradient>
</defs>
</svg>
